
        <svg xmlns="http://www.w3.org/2000/svg" xmlns:xlink="http://www.w3.org/1999/xlink" version="1.1" width="3162.1621621621625" height="1061.7756034055515" viewBox="0 0 3162.1621621621625 1061.7756034055515">
			
			<g transform="scale(8.108108108108109) translate(10, 10)">
				<defs id="SvgjsDefs5734"/><g id="SvgjsG5735" featureKey="Df7oLJ-0" transform="matrix(0.25711501542117293,0,0,0.25711501542117293,-14.767916192180603,-9.25845331916355)" fill="#000"><metadata xmlns="http://www.w3.org/2000/svg"><!--?xpacket begin="&;" id="W5M0MpCehiHzreSzNTczkc9d"?--><x:xmpmeta xmlns:x="adobe:ns:meta/" x:xmptk="Adobe XMP Core 5.3-c011 66.145661, 2012/02/06-14:56:27        "/><!--?xpacket end="w"?--></metadata><g xmlns="http://www.w3.org/2000/svg"><path d="M435.17,317.35c-3.287,0-6.238,1.426-8.287,3.685l-116.105-43.858c2.469-6.173,3.838-12.901,3.838-19.954   c0-3.084-0.272-6.101-0.77-9.041l41.753-12.034c4.901,10.298,15.399,17.415,27.563,17.415c16.857,0,30.516-13.662,30.516-30.517   s-13.658-30.517-30.516-30.517c-16.854,0-30.518,13.662-30.518,30.517c0,1.443,0.111,2.86,0.303,4.251l-41.574,11.938   C304.883,220.945,290,207.208,269,204.098V103.145c16-3.401,26.674-16.949,26.674-33.152c0-18.77-15.138-33.984-33.907-33.984   c-18.769,0-33.669,15.215-33.669,33.984c0,16.226,11.902,29.788,26.902,33.165v100.657c-15,1.71-27.457,9.161-36.068,20.02   l-42.147-33.265c0.812-1.891,1.192-3.973,1.192-6.159c0-8.647-7.044-15.657-15.692-15.657c-8.646,0-15.673,7.01-15.673,15.657   s7.001,15.656,15.649,15.656c3.094,0,5.968-0.91,8.399-2.46l42.871,33.95c-4.146,7.628-6.508,16.371-6.508,25.665   c0,4.772,0.628,9.397,1.795,13.803L99.943,314.091c-4.106-6.382-11.266-10.611-19.42-10.611c-12.751,0-23.086,10.336-23.086,23.087   s10.335,23.086,23.086,23.086c12.047,0,21.932-9.224,22.988-20.993l111.074-43.937c4.993,8.376,12.191,15.282,20.801,19.909   l-15.088,41.525c-0.52-0.053-1.049-0.08-1.581-0.08c-8.647,0-15.658,7.011-15.658,15.656c0,8.646,7.011,15.657,15.658,15.657   c8.649,0,15.655-7.011,15.655-15.657c0-4.797-2.163-9.086-5.561-11.958l15.076-41.493c5.325,1.767,11.013,2.736,16.931,2.736   c4.366,0,8.604-0.533,12.669-1.514l35.744,95.202c-9.619,6.003-16.024,16.675-16.024,28.847c0,18.771,15.215,33.984,33.983,33.984   c18.771,0,33.984-15.214,33.984-33.984c0-18.768-15.214-33.982-33.984-33.982c-1.328,0-2.639,0.084-3.928,0.232l-35.955-95.766   c7.887-4.472,14.533-10.872,19.293-18.567l117.451,44.365c0.639,5.577,5.368,9.911,11.117,9.911c6.187,0,11.2-5.016,11.2-11.199   C446.37,322.362,441.356,317.35,435.17,317.35z"/></g></g><g id="SvgjsG5736" featureKey="Ua4uQk-0" transform="matrix(5.7365766723111,0,0,5.7365766723111,114.2634233276889,-18.124831553272493)" fill="#000"><path d="M4 15 l0 5 l-3 0 l0 -14 l3 0 l0 4.92 c0.7 -0.74 1.58 -1.02 2.58 -1.02 c2.84 0 4.62 2.44 4.62 5.1 l0 5 l-3 0 l0 -5 c0 -1.36 -0.54 -2.32 -2 -2.32 c-1.44 0 -2.2 0.92 -2.2 2.32 z M12.940000000000001 10 l3 0 l0 10 l-3 0 l0 -10 z M14.440000000000001 9.06 c-1.02 0 -1.74 -0.72 -1.74 -1.74 c0 -1.04 0.72 -1.72 1.74 -1.72 c1.04 0 1.72 0.68 1.72 1.72 c0 1.06 -0.66 1.74 -1.72 1.74 z M21.04 15 l0 5 l-3 0 l0 -4.98 c0 -3.32 2.44 -5.12 5.52 -5.12 c0.1 0 0.24 0 0.38 0.02 s0.3 0.06 0.44 0.08 l0 2.9 c-0.1 -0.02 -0.22 -0.04 -0.36 -0.06 s-0.26 -0.04 -0.36 -0.04 c-0.5 0 -0.9 0.06 -1.24 0.16 c-0.56 0.2 -1.06 0.58 -1.24 1.18 c-0.1 0.26 -0.14 0.56 -0.14 0.86 z M28.08 13.8 c0.3 0.1 0.64 0.18 1 0.22 c0.36 0.06 0.7 0.08 1.02 0.08 c0.4 0 1.42 -0.08 1.42 -0.66 c0 -0.62 -0.88 -0.64 -1.32 -0.64 c-0.88 0 -1.64 0.2 -2.12 1 z M33.739999999999995 16.88 l0 2.8 c-1.12 0.26 -2.24 0.44 -3.4 0.44 c-3.18 0 -5.54 -1.86 -5.54 -5.08 c0 -3.18 2.28 -5.14 5.3 -5.14 c2.06 0 4.44 0.98 4.44 3.32 c0 2.32 -2.52 3.18 -4.46 3.18 c-0.74 0 -1.48 -0.2 -2.16 -0.48 c0.4 1.12 1.6 1.3 2.64 1.3 c0.54 0 1.08 -0.02 1.62 -0.1 c0.5 -0.04 1.08 -0.1 1.56 -0.24 z M39.099999999999994 17.28 l5.48 0 l0 2.72 l-9.2 0 l0 -2.74 l5.08 -4.54 l-4.68 0 l0 -2.72 l8.4 0 l0 2.74 z"/></g>
			</g>
		</svg>
	